<?xml version="1.0"?>
<svg width="55" height="57" xmlns="http://www.w3.org/2000/svg">
 <g>
  <title>Layer 1</title>
  <g id="Enveloppe">
   <path id="svg_1" d="m51.916397,24.327343c0,0 -7.400002,-13.299999 -10.900002,-19.799999c-1.099998,-2 -2.299999,-3 -3.5,-3.4v0c-1.200001,-0.3 -2.700001,-0.1 -4.799995,1c-6.49999,3.6 -19.799992,10.9 -19.799992,10.9s-4.700003,2 -5.700003,5.5c-1,3.4 -6.199999,21.200001 -6.199999,21.200001s-0.6,3.899998 2.699999,4.899998c3.3,1 19.500004,5.600002 19.500004,5.600002s16.199987,4.700001 19.499987,5.599998c3.299999,1 4.899998,-2.700001 4.899998,-2.700001s5.200001,-17.799999 6.200001,-21.199999c1,-3.4 -1.899998,-7.6 -1.899998,-7.6z" fill="#179EDA" clip-rule="evenodd" fill-rule="evenodd"/>
  </g>
  <g id="AH">
   <path id="svg_2" d="m30,24.249609c1.200001,-1.4 2.599998,-3.6 4.299999,-4.799999c1.700001,-1 4.100002,-1.4 5.900002,-0.5c2.099998,1 3.5,3 3.700001,5.4v18.099998h-4.5l0,-17.299999c0,-0.799999 -0.600002,-1.4 -1.300003,-1.699999c-0.899998,-0.200001 -1.699997,0.199999 -2.299999,0.799999l-5.799999,7v11.1h-4.5v-5c-1.1,1.200001 -2.200001,2.599998 -3.299999,3.599998c-1.400002,1.200001 -3.300001,1.700001 -5.400002,1.400002c-0.5,-0.200001 -1.099999,-0.200001 -1.599999,-0.5c-5.5,-2.5 -3.8,-10 -4,-15.700001c0.2,-2.599998 0.8,-5.5 3.1,-6.699999v-0.1c0.5,-0.1 0.9,-0.5 1.4,-0.5c0.400001,-0.1 0.8,-0.200001 1.3,-0.200001c0.4,-0.199999 1,-0.099998 1.5,-0.099998v0c2.6,0.4 4.5,2.4 6.1,4.4c0.299999,0.5 0.6,0.9 1,1.4l0.1,-0.1v-3.6l4.599998,-6.099999v9.7l-0.299999,0zm-12,-1.1c-0.799999,-0.099998 -1.6,0.300001 -1.9,1c-0.900001,2.900002 -0.5,6.5 -0.5,9.700001c0.2,1.400002 0.099999,2.900002 1.199999,3.700001c0.1,0.099998 0.300001,0 0.300001,0.200001c0.9,0.099998 1.699999,-0.100002 2.299999,-0.600002c2.200001,-1.700001 3.6,-4 5.200001,-6.099998c-1,-1.800001 -2.1,-3.400002 -3.300001,-5.1c-0.9,-1 -1.799999,-2.300001 -3.299999,-2.800001l0,0z" fill="#FFFFFF" clip-rule="evenodd" fill-rule="evenodd"/>
  </g>
 </g>
</svg>